<svg xmlns="http://www.w3.org/2000/svg" viewBox="0 0 24 24" fill="currentColor">
  <path d="M11.999 1.04C6.311 1.04 1.765 5.586 1.765 11.274 1.765 17.514 8.795 23.013 11.999 23.013 15.204 23.013 22.234 17.514 22.234 11.274 22.234 5.586 17.688 1.04 11.999 1.04ZM11.999 20.893C7.03 20.893 3.914 17.067 3.914 11.274 3.914 7.086 7.03 3.398 11.999 3.398 16.968 3.398 20.084 7.086 20.084 11.274 20.084 17.067 16.968 20.893 11.999 20.893Z" fill="#0078D4"/>
  <path d="M12 7.74L8 11.74L12 15.74L16 11.74L12 7.74ZM12 13.91L9.58 11.49L12 9.07L14.42 11.49L12 13.91Z" fill="#FFFFFF"/>
</svg>